<mxfile host="Electron" modified="2023-09-12T02:15:01.877Z" agent="Mozilla/5.0 (Windows NT 10.0; Win64; x64) AppleWebKit/537.36 (KHTML, like Gecko) draw.io/21.6.8 Chrome/114.0.5735.289 Electron/25.5.0 Safari/537.36" etag="pG38eUo1zB12wwmSrR78" version="21.6.8" type="device">
  <diagram name="Page-1" id="nIGAM7hPa9xwq0gXfPnU">
    <mxGraphModel dx="1859" dy="1171" grid="1" gridSize="10" guides="1" tooltips="1" connect="1" arrows="1" fold="1" page="1" pageScale="1" pageWidth="850" pageHeight="1100" math="0" shadow="0">
      <root>
        <mxCell id="0" />
        <mxCell id="1" parent="0" />
        <mxCell id="gF3WEvG9zK7zUr22VQWD-1" value="Node" style="rounded=0;whiteSpace=wrap;html=1;fontSize=18;" vertex="1" parent="1">
          <mxGeometry x="80" y="80" width="200" height="60" as="geometry" />
        </mxCell>
        <mxCell id="gF3WEvG9zK7zUr22VQWD-2" value="Thought" style="rounded=0;whiteSpace=wrap;html=1;fontSize=18;" vertex="1" parent="1">
          <mxGeometry x="280" y="200" width="200" height="60" as="geometry" />
        </mxCell>
        <mxCell id="gF3WEvG9zK7zUr22VQWD-3" value="ThExpression" style="rounded=0;whiteSpace=wrap;html=1;fontSize=18;" vertex="1" parent="1">
          <mxGeometry x="80" y="360" width="200" height="60" as="geometry" />
        </mxCell>
        <mxCell id="gF3WEvG9zK7zUr22VQWD-4" value="Flash card" style="rounded=0;whiteSpace=wrap;html=1;fontSize=18;" vertex="1" parent="1">
          <mxGeometry x="240" y="520" width="200" height="60" as="geometry" />
        </mxCell>
      </root>
    </mxGraphModel>
  </diagram>
</mxfile>
